<?xml version="1.0" encoding="UTF-8"?>
<svg version="1.1" xmlns="http://www.w3.org/2000/svg" width="96" height="96">
<path d="M0 0 C1.11544189 0.01571045 1.11544189 0.01571045 2.25341797 0.03173828 C3.46191406 0.04140625 3.46191406 0.04140625 4.69482422 0.05126953 C5.95746094 0.07640625 5.95746094 0.07640625 7.24560547 0.10205078 C8.51984375 0.11558594 8.51984375 0.11558594 9.81982422 0.12939453 C11.9202043 0.15299431 14.02043991 0.18886595 16.12060547 0.22705078 C16.17439772 3.18562487 16.2141764 6.143228 16.24560547 9.10205078 C16.26236328 9.94380859 16.27912109 10.78556641 16.29638672 11.65283203 C16.30283203 12.45849609 16.30927734 13.26416016 16.31591797 14.09423828 C16.3263916 14.83786621 16.33686523 15.58149414 16.34765625 16.34765625 C16.12060547 18.22705078 16.12060547 18.22705078 14.12060547 20.22705078 C11.4178367 20.31423687 8.81374072 20.31851575 6.12060547 20.22705078 C2.2278611 19.82483826 2.2278611 19.82483826 0.08979797 21.76338196 C-0.62666397 22.48269394 -1.34312592 23.20200592 -2.08129883 23.94311523 C-2.89861984 24.75428299 -3.71594086 25.56545074 -4.55802917 26.40119934 C-5.43107193 27.28861313 -6.30411469 28.17602692 -7.20361328 29.09033203 C-8.10561966 29.99325485 -9.00762604 30.89617767 -9.93696594 31.82646179 C-11.84400406 33.73954807 -13.74676509 35.65594925 -15.64331055 37.5793457 C-18.07438793 40.04440283 -20.51842453 42.49608821 -22.96730328 44.94344807 C-25.30168534 47.2785048 -27.62752251 49.62201993 -29.95361328 51.96533203 C-30.83272873 52.84667313 -31.71184418 53.72801422 -32.61759949 54.63606262 C-33.42546402 55.45668686 -34.23332855 56.2773111 -35.06567383 57.12280273 C-35.77974899 57.8445015 -36.49382416 58.56620026 -37.22953796 59.30976868 C-39.08985597 61.22660965 -39.08985597 61.22660965 -39.87939453 64.22705078 C-39.03368896 64.20964844 -39.03368896 64.20964844 -38.17089844 64.19189453 C-30.82397929 64.10955964 -23.5731187 64.62327644 -16.25439453 65.22705078 C-15.05943359 65.32244141 -13.86447266 65.41783203 -12.63330078 65.51611328 C-9.71502974 65.74957496 -6.79709877 65.98662633 -3.87939453 66.22705078 C-4.20286865 65.46787354 -4.52634277 64.70869629 -4.85961914 63.92651367 C-6.04810837 60.78044582 -6.19755218 58.01165309 -6.44189453 54.66455078 C-6.983205 49.91250575 -6.983205 49.91250575 -10.00830078 46.49267578 C-12.29222692 45.50619125 -14.45211275 44.76145232 -16.87939453 44.22705078 C-16.30594516 41.35980392 -16.01794303 40.36559928 -13.87939453 38.22705078 C-9.3263311 38.53748692 -5.75873237 39.84654801 -1.87939453 42.22705078 C0.55690507 45.47545025 0.66422536 49.2717565 1.12060547 53.22705078 C2.98977341 51.35788284 2.33748554 48.35260504 2.37060547 45.85205078 C2.39638672 44.68931641 2.42216797 43.52658203 2.44873047 42.32861328 C2.38341162 39.27484068 2.38341162 39.27484068 0.80419922 37.38720703 C-1.58593673 35.740176 -4.10818664 35.02762195 -6.87939453 34.22705078 C-6.30594516 31.35980392 -6.01794303 30.36559928 -3.87939453 28.22705078 C1.39261661 28.4259946 4.38593036 29.49237567 8.12060547 33.22705078 C10.46842156 36.78533261 10.32598215 39.84656744 10.24560547 44.03955078 C10.23803223 44.69028564 10.23045898 45.34102051 10.22265625 46.01147461 C10.19007533 48.78384536 10.13371576 51.55561658 10.07958984 54.32763672 C10.04337573 56.35658021 10.01922037 58.38542781 9.99560547 60.41455078 C9.97240234 61.62498047 9.94919922 62.83541016 9.92529297 64.08251953 C10.11337516 67.1106428 10.42682873 68.74560863 12.12060547 71.22705078 C12.78060547 71.55705078 13.44060547 71.88705078 14.12060547 72.22705078 C14.12060547 74.20705078 14.12060547 76.18705078 14.12060547 78.22705078 C11.30810547 78.41455078 11.30810547 78.41455078 8.12060547 78.22705078 C7.72035156 77.74776123 7.32009766 77.26847168 6.90771484 76.7746582 C4.11510917 74.35630747 0.88462557 74.51886179 -2.66064453 74.27783203 C-3.4293689 74.21548874 -4.19809326 74.15314545 -4.9901123 74.08891296 C-6.62035423 73.95922151 -8.25112862 73.83608173 -9.88232422 73.71899414 C-12.34356724 73.54212539 -14.80270735 73.34649178 -17.26220703 73.14697266 C-21.79857676 72.78784735 -26.33671277 72.49304558 -30.87939453 72.22705078 C-32.02045654 72.15405762 -33.16151855 72.08106445 -34.3371582 72.00585938 C-39.73916126 71.7317392 -39.73916126 71.7317392 -44.49267578 73.97705078 C-45.05341797 74.71955078 -45.61416016 75.46205078 -46.19189453 76.22705078 C-49.56959791 80.18279412 -49.56959791 80.18279412 -53.37939453 80.72705078 C-54.20439453 80.56205078 -55.02939453 80.39705078 -55.87939453 80.22705078 C-55.87939453 77.58705078 -55.87939453 74.94705078 -55.87939453 72.22705078 C-58.51939453 72.22705078 -61.15939453 72.22705078 -63.87939453 72.22705078 C-64.37939453 69.72705078 -64.37939453 69.72705078 -63.87939453 66.22705078 C-61.90743606 64.2421189 -59.86204027 62.5264447 -57.62939453 60.84033203 C-54.74458507 56.53243576 -55.55689123 52.26856761 -55.87939453 47.22705078 C-55.91873108 46.55525787 -55.95806763 45.88346497 -55.99859619 45.1913147 C-56.27571962 40.51637709 -56.61768154 35.84890129 -56.99633789 31.18115234 C-57.19364561 28.705076 -57.37147792 26.22802965 -57.54931641 23.75048828 C-57.67507654 22.16966375 -57.80198725 20.58893024 -57.93017578 19.00830078 C-57.98031326 18.27083618 -58.03045074 17.53337158 -58.08210754 16.77355957 C-58.40719787 12.76425072 -58.40719787 12.76425072 -60.3918457 9.36962891 C-60.88273682 8.99257813 -61.37362793 8.61552734 -61.87939453 8.22705078 C-62.62939453 6.16455078 -62.62939453 6.16455078 -62.87939453 4.22705078 C-61.87939453 2.22705078 -61.87939453 2.22705078 -60.12939453 1.35205078 C-56.72384144 1.16285339 -55.33848843 3.02680887 -52.87939453 5.22705078 C-49.99229921 6.67059844 -47.55280962 6.26589922 -44.33251953 6.18408203 C-42.99920131 6.16167932 -41.66586687 6.14022551 -40.33251953 6.11962891 C-38.23441569 6.08265252 -36.13714287 6.03977074 -34.03955078 5.98022461 C-32.0120884 5.92537006 -29.98554262 5.8965388 -27.95751953 5.87158203 C-26.74483398 5.84427002 -25.53214844 5.81695801 -24.28271484 5.78881836 C-20.19426583 6.31527216 -18.07899624 7.68181923 -14.87939453 10.22705078 C-13.41845703 12.29736328 -13.41845703 12.29736328 -12.50439453 14.35205078 C-12.18728516 15.03525391 -11.87017578 15.71845703 -11.54345703 16.42236328 C-10.87939453 18.22705078 -10.87939453 18.22705078 -10.87939453 20.22705078 C-8.23939453 17.91705078 -5.59939453 15.60705078 -2.87939453 13.22705078 C-3.37439453 11.74205078 -3.37439453 11.74205078 -3.87939453 10.22705078 C-4.11128075 7.50373591 -4.01032821 4.97665809 -3.87939453 2.22705078 C-1.87939453 0.22705078 -1.87939453 0.22705078 0 0 Z M-42.87939453 14.22705078 C-42.87939453 14.55705078 -42.87939453 14.88705078 -42.87939453 15.22705078 C-41.98736328 15.35982422 -41.09533203 15.49259766 -40.17626953 15.62939453 C-38.42056641 15.89429688 -38.42056641 15.89429688 -36.62939453 16.16455078 C-35.46923828 16.33857422 -34.30908203 16.51259766 -33.11376953 16.69189453 C-32.04642578 16.86849609 -30.97908203 17.04509766 -29.87939453 17.22705078 C-29.11240234 17.32501953 -28.34541016 17.42298828 -27.55517578 17.52392578 C-25.87939453 18.22705078 -25.87939453 18.22705078 -24.93798828 20.15283203 C-24.73302734 20.94044922 -24.52806641 21.72806641 -24.31689453 22.53955078 C-23.31497572 25.99672118 -22.35176011 28.51922181 -19.87939453 31.22705078 C-18.55939453 29.90705078 -17.23939453 28.58705078 -15.87939453 27.22705078 C-16.2793346 25.63940992 -16.70015388 24.05702167 -17.12939453 22.47705078 C-17.36142578 21.59533203 -17.59345703 20.71361328 -17.83251953 19.80517578 C-19.09291994 16.70120462 -20.16497323 15.20574509 -22.87939453 13.22705078 C-26.17744855 12.70540826 -26.17744855 12.70540826 -29.75439453 12.91455078 C-30.94806641 12.93904297 -32.14173828 12.96353516 -33.37158203 12.98876953 C-36.60323067 13.20829132 -39.69840146 13.62879062 -42.87939453 14.22705078 Z M-50.87939453 19.22705078 C-49.88939453 31.43705078 -48.89939453 43.64705078 -47.87939453 56.22705078 C-43.55352336 55.14558299 -42.57383755 54.27923186 -39.55126953 51.19189453 C-38.35244141 49.97856445 -38.35244141 49.97856445 -37.12939453 48.74072266 C-36.30439453 47.89058594 -35.47939453 47.04044922 -34.62939453 46.16455078 C-33.78892578 45.31054688 -32.94845703 44.45654297 -32.08251953 43.57666016 C-30.00791856 41.46669666 -27.94063621 39.3500537 -25.87939453 37.22705078 C-26.18232422 36.32470703 -26.48525391 35.42236328 -26.79736328 34.49267578 C-27.40389394 32.6621356 -27.9888093 30.82284335 -28.49267578 28.96142578 C-29.34397784 26.54544006 -30.0745307 25.07013526 -31.87939453 23.22705078 C-35.14338657 22.24741971 -38.19701207 21.85675426 -41.59033203 21.57861328 C-44.87939453 21.22705078 -44.87939453 21.22705078 -50.87939453 19.22705078 Z " fill="#FFFFFF" transform="translate(71.87939453125,7.77294921875)"/>
</svg>
