<?xml version="1.0" encoding="UTF-8"?>
<svg version="1.1" xmlns="http://www.w3.org/2000/svg" width="96" height="96">
<path d="M0 0 C4.68162391 2.8911353 8.7063345 6.45392843 10.234375 11.89453125 C10.3793924 14.05884756 10.47981935 16.22639872 10.546875 18.39453125 C10.69059811 23.07516528 10.69059811 23.07516528 12.84375 27.078125 C14.73919807 28.84253908 14.73919807 28.84253908 16.73828125 30.234375 C18.234375 31.89453125 18.234375 31.89453125 18.82421875 34.6875 C17.98491274 39.25087902 15.5777687 41.21981402 12.234375 44.26953125 C11.37585938 45.08744141 11.37585938 45.08744141 10.5 45.921875 C9.09131961 47.26012137 7.66455003 48.579281 6.234375 49.89453125 C7.38610855 52.36253172 8.28221065 53.9423669 10.234375 55.89453125 C10.796875 58.58203125 10.796875 58.58203125 10.234375 61.89453125 C8.68115234 63.34716797 8.68115234 63.34716797 6.7578125 64.88671875 C2.74016664 68.74723002 2.39006488 71.89517888 2.26367188 77.33007812 C2.27462891 78.32072266 2.28558594 79.31136719 2.296875 80.33203125 C2.28076172 81.34974609 2.26464844 82.36746094 2.24804688 83.41601562 C2.21291696 85.91023986 2.20916795 88.40030949 2.234375 90.89453125 C-0.405625 90.89453125 -3.045625 90.89453125 -5.765625 90.89453125 C-5.88170627 86.47808527 -5.9528382 82.06203108 -6.015625 77.64453125 C-6.04914062 76.39027344 -6.08265625 75.13601562 -6.1171875 73.84375 C-6.13007812 72.63847656 -6.14296875 71.43320313 -6.15625 70.19140625 C-6.17719727 69.08120117 -6.19814453 67.97099609 -6.21972656 66.82714844 C-5.66881684 63.26933791 -4.5117187 62.12751402 -1.765625 59.89453125 C-2.91735855 57.42653078 -3.81346065 55.8466956 -5.765625 53.89453125 C-6.265625 51.16796875 -6.265625 51.16796875 -5.765625 47.89453125 C-4.05210144 45.45571453 -1.96149594 43.52252163 0.234375 41.51953125 C1.09289063 40.70162109 1.09289063 40.70162109 1.96875 39.8671875 C3.37743039 38.52894113 4.80419997 37.2097815 6.234375 35.89453125 C5.904375 35.23453125 5.574375 34.57453125 5.234375 33.89453125 C4.30625 34.53390625 3.378125 35.17328125 2.421875 35.83203125 C-3.41489577 39.60876528 -8.98790841 39.41520352 -15.765625 38.89453125 C-19.265625 37.51953125 -19.265625 37.51953125 -21.765625 35.89453125 C-22.94125 35.30671875 -22.94125 35.30671875 -24.140625 34.70703125 C-24.676875 34.43890625 -25.213125 34.17078125 -25.765625 33.89453125 C-23.78651387 38.83093488 -19.74609856 41.77053389 -15.8828125 45.26171875 C-13.765625 47.89453125 -13.765625 47.89453125 -13.3359375 51.06640625 C-13.86740694 54.56444146 -15.06586607 55.70097712 -17.765625 57.89453125 C-16.61389145 60.36253172 -15.71778935 61.9423669 -13.765625 63.89453125 C-13.53857422 66.60009766 -13.53857422 66.60009766 -13.5703125 69.99609375 C-13.57675781 71.2078125 -13.58320312 72.41953125 -13.58984375 73.66796875 C-13.60660156 74.93898438 -13.62335937 76.21 -13.640625 77.51953125 C-13.64964844 78.79828125 -13.65867187 80.07703125 -13.66796875 81.39453125 C-13.69160197 84.56138292 -13.72454871 87.72786549 -13.765625 90.89453125 C-16.405625 90.89453125 -19.045625 90.89453125 -21.765625 90.89453125 C-21.75926025 90.26474365 -21.75289551 89.63495605 -21.74633789 88.98608398 C-21.73759046 86.10022663 -21.78243962 83.21751975 -21.828125 80.33203125 C-21.81716797 79.34138672 -21.80621094 78.35074219 -21.79492188 77.33007812 C-21.92122431 71.89907348 -22.27369623 68.74371546 -26.28125 64.87890625 C-26.91450195 64.3694043 -27.54775391 63.85990234 -28.20019531 63.33496094 C-29.765625 61.89453125 -29.765625 61.89453125 -30.453125 58.70703125 C-29.63345066 55.35381803 -28.41420232 54.04650032 -25.765625 51.89453125 C-27.74473613 46.95812762 -31.78515144 44.01852861 -35.6484375 40.52734375 C-37.765625 37.89453125 -37.765625 37.89453125 -38.28515625 34.765625 C-37.6745632 31.391295 -37.04279282 30.79292813 -34.328125 28.83203125 C-31.70858877 26.47862321 -30.84607914 25.40429396 -30.2890625 21.875 C-30.26070312 20.76769531 -30.23234375 19.66039062 -30.203125 18.51953125 C-30.02474568 11.77989515 -28.39070548 7.79415989 -23.765625 2.89453125 C-17.29271618 -2.6344117 -7.84970384 -3.13766411 0 0 Z M-19.765625 12.89453125 C-21.37992423 16.12312972 -21.36133157 19.40446778 -20.765625 22.89453125 C-19.02960395 25.9196127 -16.92982363 28.31243194 -13.765625 29.89453125 C-8.64192102 30.5018197 -8.64192102 30.5018197 -3.94140625 28.84765625 C-0.13809756 25.7166031 1.12100867 24.02819457 1.609375 19.14453125 C1.58496275 15.79395057 0.99038854 14.04558593 -1.140625 11.45703125 C-4.6704836 8.0112169 -6.6939902 7.49897289 -11.66015625 7.53515625 C-15.38155953 8.17034939 -17.16875349 10.23432141 -19.765625 12.89453125 Z " fill="#FFFFFF" transform="translate(57.765625,5.10546875)"/>
</svg>
