<?xml version="1.0" encoding="UTF-8"?>
<svg version="1.1" xmlns="http://www.w3.org/2000/svg" width="96" height="96">
<path d="M0 0 C2 2 2 2 2.375 5.25 C2.17695285 12.44571309 0.55439416 21.10149056 -4.26171875 26.56640625 C-5.16535156 27.36949219 -6.06898437 28.17257813 -7 29 C-7.98390102 29.93004328 -8.96558962 30.86243142 -9.9453125 31.796875 C-15.93638831 37.38228549 -22.02088459 42.7546606 -28.41015625 47.88671875 C-32.38639834 51.13128431 -36.1977684 54.55452099 -40 58 C-39.68675781 58.61746094 -39.37351563 59.23492187 -39.05078125 59.87109375 C-38.00129506 61.99737618 -37.22882674 63.63545703 -37 66 C-38.4375 67.75 -38.4375 67.75 -40 69 C-43.08510827 67.80023567 -46.05047042 66.49997444 -49 65 C-50.65795529 66.54963153 -52.30098044 68.11524769 -53.9375 69.6875 C-55.31228516 70.99267578 -55.31228516 70.99267578 -56.71484375 72.32421875 C-59.04646772 75.05441092 -59.70207297 76.48192553 -60 80 C-62.88568083 80.38995687 -65.09285302 80.57578407 -67.62011719 78.97167969 C-69.29633397 77.51154978 -70.83776333 75.9805583 -72.375 74.375 C-72.92027344 73.85292969 -73.46554688 73.33085938 -74.02734375 72.79296875 C-76.82717427 69.95103551 -77.92865761 68.68964314 -78.3515625 64.6015625 C-78.23554687 63.74304688 -78.11953125 62.88453125 -78 62 C-77.11054687 61.76539063 -76.22109375 61.53078125 -75.3046875 61.2890625 C-71.61354542 59.84925531 -69.82476614 58.23838833 -67.125 55.375 C-66.34382813 54.55773438 -65.56265625 53.74046875 -64.7578125 52.8984375 C-64.17773438 52.27195313 -63.59765625 51.64546875 -63 51 C-63.30679688 50.39671875 -63.61359375 49.7934375 -63.9296875 49.171875 C-65.08612063 46.82524427 -66.052134 44.4373697 -67 42 C-66.01 41.01 -65.02 40.02 -64 39 C-63.2575 39.33 -62.515 39.66 -61.75 40 C-58.86116688 41.22782871 -58.86116688 41.22782871 -55 41 C-52.95258161 38.94357537 -51.17833402 36.94188549 -49.375 34.6875 C-48.30488247 33.39199111 -47.23324756 32.09773423 -46.16015625 30.8046875 C-45.62793457 30.15854492 -45.09571289 29.51240234 -44.54736328 28.84667969 C-42.37903532 26.25891814 -40.10659296 23.78968958 -37.8125 21.3125 C-34.4473302 17.67811662 -31.38800845 13.9297871 -28.375 10 C-24.62102838 5.36196477 -21.79679969 3.22159198 -16 2 C-15.34128906 1.80148437 -14.68257812 1.60296875 -14.00390625 1.3984375 C-9.24395245 0.00663814 -4.95070452 -0.3414279 0 0 Z M-21.37109375 12.9296875 C-24.76680685 16.46196678 -27.90889458 20.20090498 -31 24 C-31.79148437 24.96035156 -32.58296875 25.92070313 -33.3984375 26.91015625 C-34.826055 28.65988961 -36.24553718 30.41629648 -37.65625 32.1796875 C-42.2079174 37.6568606 -47.12488021 42.81142073 -52 48 C-50.35 49.98 -48.7 51.96 -47 54 C-46.071875 53.195625 -45.14375 52.39125 -44.1875 51.5625 C-41.10986744 48.91746639 -37.97227427 46.35863695 -34.8125 43.8125 C-30.14958854 40.01427679 -25.6831241 36.05682784 -21.29052734 31.953125 C-18.42597032 29.27966396 -15.48994071 26.76675178 -12.4375 24.3125 C-7.0799622 19.66633652 -5.85692533 13.85540263 -5 7 C-11.25415285 7 -16.80926398 8.60040076 -21.37109375 12.9296875 Z M-59.3828125 58.1875 C-60.74019531 59.5796875 -60.74019531 59.5796875 -62.125 61 C-63.03507812 61.928125 -63.94515625 62.85625 -64.8828125 63.8125 C-65.58148438 64.534375 -66.28015625 65.25625 -67 66 C-66.67 66.99 -66.34 67.98 -66 69 C-62.54798361 67.52278578 -60.35038064 65.56205999 -57.75 62.875 C-57.04359375 62.15054688 -56.3371875 61.42609375 -55.609375 60.6796875 C-55.07828125 60.12539062 -54.5471875 59.57109375 -54 59 C-54.33 58.01 -54.66 57.02 -55 56 C-57.29355722 55.77457624 -57.29355722 55.77457624 -59.3828125 58.1875 Z " fill="#FFFFFF" transform="translate(86,8)"/>
</svg>
